<mxfile host="app.diagrams.net" modified="2023-12-16T10:08:54.028Z" agent="Mozilla/5.0 (Windows NT 10.0; Win64; x64) AppleWebKit/537.36 (KHTML, like Gecko) Chrome/120.0.0.0 Safari/537.36 Edg/120.0.0.0" etag="ORbmXVlwmdzNJV2HBvUE" version="22.1.11" type="google">
  <diagram name="Trang-1" id="0NFJNvAA1Tw_XRXMWH6s">
    <mxGraphModel grid="1" page="1" gridSize="10" guides="1" tooltips="1" connect="1" arrows="1" fold="1" pageScale="1" pageWidth="827" pageHeight="1169" math="0" shadow="0">
      <root>
        <mxCell id="0" />
        <mxCell id="1" parent="0" />
        <mxCell id="KI0g4pAGkvJERt58rDgv-35" value="&lt;font style=&quot;font-size: 22px;&quot;&gt;TìmKiếmSP&lt;/font&gt;" style="ellipse;whiteSpace=wrap;html=1;" vertex="1" parent="1">
          <mxGeometry x="-540" y="-130" width="240" height="80" as="geometry" />
        </mxCell>
        <mxCell id="i1LWnFQTRq_zaYEJp6b2-79" style="edgeStyle=orthogonalEdgeStyle;curved=1;rounded=0;orthogonalLoop=1;jettySize=auto;html=1;exitX=0.75;exitY=0;exitDx=0;exitDy=0;entryX=0;entryY=0.5;entryDx=0;entryDy=0;" edge="1" parent="1" source="dJgeBdtfag06815C9ANV-24" target="dJgeBdtfag06815C9ANV-27">
          <mxGeometry relative="1" as="geometry" />
        </mxCell>
        <mxCell id="i1LWnFQTRq_zaYEJp6b2-104" value="&lt;font style=&quot;font-size: 22px;&quot;&gt;ThôngTin&lt;br&gt;KháchHàng&lt;/font&gt;" style="edgeLabel;html=1;align=center;verticalAlign=middle;resizable=0;points=[];" connectable="0" vertex="1" parent="i1LWnFQTRq_zaYEJp6b2-79">
          <mxGeometry x="0.478" y="-20" relative="1" as="geometry">
            <mxPoint x="-60" y="60" as="offset" />
          </mxGeometry>
        </mxCell>
        <mxCell id="dJgeBdtfag06815C9ANV-24" value="&lt;font style=&quot;font-size: 22px;&quot;&gt;KháchHàng&lt;/font&gt;" style="rounded=0;whiteSpace=wrap;html=1;" vertex="1" parent="1">
          <mxGeometry x="-280" y="480" width="240" height="120" as="geometry" />
        </mxCell>
        <mxCell id="dJgeBdtfag06815C9ANV-27" value="&lt;font style=&quot;font-size: 22px;&quot;&gt;ĐăngNhập&lt;/font&gt;" style="ellipse;whiteSpace=wrap;html=1;" vertex="1" parent="1">
          <mxGeometry x="210" y="140" width="240" height="80" as="geometry" />
        </mxCell>
        <mxCell id="i1LWnFQTRq_zaYEJp6b2-25" style="edgeStyle=orthogonalEdgeStyle;curved=1;rounded=0;orthogonalLoop=1;jettySize=auto;html=1;entryX=0;entryY=0.75;entryDx=0;entryDy=0;" edge="1" parent="1" source="dJgeBdtfag06815C9ANV-30" target="i1LWnFQTRq_zaYEJp6b2-10">
          <mxGeometry relative="1" as="geometry" />
        </mxCell>
        <mxCell id="i1LWnFQTRq_zaYEJp6b2-134" value="&lt;font style=&quot;font-size: 22px;&quot;&gt;ThốngKêBáoCáo&lt;br style=&quot;border-color: var(--border-color);&quot;&gt;SốLượngĐơnHàng&lt;/font&gt;" style="edgeLabel;html=1;align=center;verticalAlign=middle;resizable=0;points=[];" connectable="0" vertex="1" parent="i1LWnFQTRq_zaYEJp6b2-25">
          <mxGeometry x="-0.1843" y="8" relative="1" as="geometry">
            <mxPoint as="offset" />
          </mxGeometry>
        </mxCell>
        <mxCell id="dJgeBdtfag06815C9ANV-30" value="&lt;font style=&quot;font-size: 22px;&quot;&gt;ThốngKêĐơnHàng&lt;/font&gt;" style="ellipse;whiteSpace=wrap;html=1;" vertex="1" parent="1">
          <mxGeometry x="1340" y="750" width="240" height="80" as="geometry" />
        </mxCell>
        <mxCell id="i1LWnFQTRq_zaYEJp6b2-10" value="&lt;font style=&quot;font-size: 22px;&quot;&gt;QuảnLý&lt;/font&gt;" style="rounded=0;whiteSpace=wrap;html=1;" vertex="1" parent="1">
          <mxGeometry x="1880" y="480" width="240" height="120" as="geometry" />
        </mxCell>
        <mxCell id="i1LWnFQTRq_zaYEJp6b2-11" value="&lt;font style=&quot;font-size: 22px;&quot;&gt;CậpNhậtSốLượngSP&lt;/font&gt;" style="ellipse;whiteSpace=wrap;html=1;" vertex="1" parent="1">
          <mxGeometry x="1010" y="70" width="240" height="80" as="geometry" />
        </mxCell>
        <mxCell id="i1LWnFQTRq_zaYEJp6b2-26" style="edgeStyle=orthogonalEdgeStyle;curved=1;rounded=0;orthogonalLoop=1;jettySize=auto;html=1;entryX=0;entryY=1;entryDx=0;entryDy=0;" edge="1" parent="1" source="i1LWnFQTRq_zaYEJp6b2-12" target="i1LWnFQTRq_zaYEJp6b2-10">
          <mxGeometry relative="1" as="geometry" />
        </mxCell>
        <mxCell id="i1LWnFQTRq_zaYEJp6b2-133" value="&lt;font style=&quot;font-size: 22px;&quot;&gt;ThốngKêBáoCáo&lt;br&gt;DoanhThuCủaShop&lt;/font&gt;" style="edgeLabel;html=1;align=center;verticalAlign=middle;resizable=0;points=[];" connectable="0" vertex="1" parent="i1LWnFQTRq_zaYEJp6b2-26">
          <mxGeometry x="0.1364" y="54" relative="1" as="geometry">
            <mxPoint x="-66" y="50" as="offset" />
          </mxGeometry>
        </mxCell>
        <mxCell id="i1LWnFQTRq_zaYEJp6b2-12" value="&lt;font style=&quot;font-size: 22px;&quot;&gt;ThốngKêDoanhThu&lt;/font&gt;" style="ellipse;whiteSpace=wrap;html=1;" vertex="1" parent="1">
          <mxGeometry x="1400" y="920" width="240" height="80" as="geometry" />
        </mxCell>
        <mxCell id="i1LWnFQTRq_zaYEJp6b2-13" value="&lt;font style=&quot;font-size: 22px;&quot;&gt;ThêmSPMới&lt;/font&gt;" style="ellipse;whiteSpace=wrap;html=1;" vertex="1" parent="1">
          <mxGeometry x="1250" y="230" width="240" height="80" as="geometry" />
        </mxCell>
        <mxCell id="i1LWnFQTRq_zaYEJp6b2-22" style="edgeStyle=orthogonalEdgeStyle;rounded=0;orthogonalLoop=1;jettySize=auto;html=1;curved=1;" edge="1" parent="1" source="i1LWnFQTRq_zaYEJp6b2-15">
          <mxGeometry relative="1" as="geometry">
            <mxPoint x="1880" y="510" as="targetPoint" />
            <Array as="points">
              <mxPoint x="1880" y="450" />
            </Array>
          </mxGeometry>
        </mxCell>
        <mxCell id="i1LWnFQTRq_zaYEJp6b2-117" value="&lt;font style=&quot;font-size: 22px;&quot;&gt;ThốngKêBáoCáo&lt;br&gt;SLSP&lt;/font&gt;" style="edgeLabel;html=1;align=center;verticalAlign=middle;resizable=0;points=[];" connectable="0" vertex="1" parent="i1LWnFQTRq_zaYEJp6b2-22">
          <mxGeometry x="-0.361" y="-1" relative="1" as="geometry">
            <mxPoint x="24" y="19" as="offset" />
          </mxGeometry>
        </mxCell>
        <mxCell id="i1LWnFQTRq_zaYEJp6b2-15" value="&lt;font style=&quot;font-size: 22px;&quot;&gt;ThốngKêSốLượngSP&lt;/font&gt;" style="ellipse;whiteSpace=wrap;html=1;" vertex="1" parent="1">
          <mxGeometry x="1390" y="400" width="240" height="80" as="geometry" />
        </mxCell>
        <mxCell id="i1LWnFQTRq_zaYEJp6b2-16" value="&lt;font style=&quot;font-size: 22px;&quot;&gt;MuaNgay&lt;/font&gt;" style="ellipse;whiteSpace=wrap;html=1;" vertex="1" parent="1">
          <mxGeometry x="240" y="970" width="240" height="80" as="geometry" />
        </mxCell>
        <mxCell id="i1LWnFQTRq_zaYEJp6b2-17" value="&lt;font style=&quot;font-size: 22px;&quot;&gt;ThêmVàoGiỏHàng&lt;/font&gt;" style="ellipse;whiteSpace=wrap;html=1;" vertex="1" parent="1">
          <mxGeometry x="230" y="450" width="240" height="80" as="geometry" />
        </mxCell>
        <mxCell id="i1LWnFQTRq_zaYEJp6b2-19" value="&lt;font style=&quot;font-size: 22px;&quot;&gt;TìnhTrạngĐơn&lt;/font&gt;" style="ellipse;whiteSpace=wrap;html=1;" vertex="1" parent="1">
          <mxGeometry x="40" y="1120" width="240" height="80" as="geometry" />
        </mxCell>
        <mxCell id="i1LWnFQTRq_zaYEJp6b2-24" style="edgeStyle=orthogonalEdgeStyle;curved=1;rounded=0;orthogonalLoop=1;jettySize=auto;html=1;entryX=0;entryY=0.25;entryDx=0;entryDy=0;" edge="1" parent="1" source="i1LWnFQTRq_zaYEJp6b2-23" target="i1LWnFQTRq_zaYEJp6b2-10">
          <mxGeometry relative="1" as="geometry">
            <Array as="points">
              <mxPoint x="1880" y="590" />
            </Array>
          </mxGeometry>
        </mxCell>
        <mxCell id="i1LWnFQTRq_zaYEJp6b2-135" value="&lt;font style=&quot;font-size: 22px;&quot;&gt;ThốngKêBáoCáo&lt;br style=&quot;border-color: var(--border-color);&quot;&gt;SốLượngKH&lt;/font&gt;" style="edgeLabel;html=1;align=center;verticalAlign=middle;resizable=0;points=[];" connectable="0" vertex="1" parent="i1LWnFQTRq_zaYEJp6b2-24">
          <mxGeometry x="-0.3788" y="8" relative="1" as="geometry">
            <mxPoint x="-19" y="-12" as="offset" />
          </mxGeometry>
        </mxCell>
        <mxCell id="i1LWnFQTRq_zaYEJp6b2-23" value="&lt;font style=&quot;font-size: 22px;&quot;&gt;ThốngKêSốLượngKH&lt;/font&gt;" style="ellipse;whiteSpace=wrap;html=1;" vertex="1" parent="1">
          <mxGeometry x="1340" y="560" width="240" height="80" as="geometry" />
        </mxCell>
        <mxCell id="i1LWnFQTRq_zaYEJp6b2-31" value="&lt;font style=&quot;font-size: 22px;&quot;&gt;SảnPhẩm&lt;/font&gt;" style="shape=link;html=1;rounded=0;curved=1;width=57.272727272727266;" edge="1" parent="1">
          <mxGeometry x="0.0182" width="100" relative="1" as="geometry">
            <mxPoint x="960" y="350" as="sourcePoint" />
            <mxPoint x="1060" y="350" as="targetPoint" />
            <mxPoint as="offset" />
          </mxGeometry>
        </mxCell>
        <mxCell id="i1LWnFQTRq_zaYEJp6b2-34" value="" style="endArrow=classic;startArrow=classic;html=1;rounded=0;curved=1;entryX=0;entryY=1;entryDx=0;entryDy=0;edgeStyle=orthogonalEdgeStyle;" edge="1" parent="1" target="i1LWnFQTRq_zaYEJp6b2-13">
          <mxGeometry width="50" height="50" relative="1" as="geometry">
            <mxPoint x="1070" y="350" as="sourcePoint" />
            <mxPoint x="720" y="440" as="targetPoint" />
          </mxGeometry>
        </mxCell>
        <mxCell id="DS4wACUqmvciegjBA9S5-13" value="&lt;font style=&quot;font-size: 22px;&quot;&gt;ThôngTin&lt;br style=&quot;border-color: var(--border-color);&quot;&gt;SảnPhẩm&lt;br&gt;Mới&lt;/font&gt;" style="edgeLabel;html=1;align=center;verticalAlign=middle;resizable=0;points=[];" connectable="0" vertex="1" parent="i1LWnFQTRq_zaYEJp6b2-34">
          <mxGeometry x="-0.1697" y="1" relative="1" as="geometry">
            <mxPoint x="-1" as="offset" />
          </mxGeometry>
        </mxCell>
        <mxCell id="i1LWnFQTRq_zaYEJp6b2-35" value="" style="endArrow=classic;startArrow=classic;html=1;rounded=0;curved=1;entryX=0.5;entryY=1;entryDx=0;entryDy=0;edgeStyle=orthogonalEdgeStyle;" edge="1" parent="1" target="i1LWnFQTRq_zaYEJp6b2-11">
          <mxGeometry width="50" height="50" relative="1" as="geometry">
            <mxPoint x="1040" y="320" as="sourcePoint" />
            <mxPoint x="720" y="440" as="targetPoint" />
            <Array as="points">
              <mxPoint x="1130" y="320" />
            </Array>
          </mxGeometry>
        </mxCell>
        <mxCell id="DS4wACUqmvciegjBA9S5-12" value="&lt;font style=&quot;font-size: 22px;&quot;&gt;ThôngTin&lt;br&gt;SốLượng&lt;br&gt;SảnPhẩm&lt;/font&gt;" style="edgeLabel;html=1;align=center;verticalAlign=middle;resizable=0;points=[];" connectable="0" vertex="1" parent="i1LWnFQTRq_zaYEJp6b2-35">
          <mxGeometry x="0.216" y="12" relative="1" as="geometry">
            <mxPoint y="-18" as="offset" />
          </mxGeometry>
        </mxCell>
        <mxCell id="i1LWnFQTRq_zaYEJp6b2-36" value="" style="endArrow=classic;startArrow=classic;html=1;rounded=0;curved=1;entryX=0;entryY=0.5;entryDx=0;entryDy=0;edgeStyle=orthogonalEdgeStyle;" edge="1" parent="1" target="i1LWnFQTRq_zaYEJp6b2-15">
          <mxGeometry width="50" height="50" relative="1" as="geometry">
            <mxPoint x="1050" y="380" as="sourcePoint" />
            <mxPoint x="720" y="440" as="targetPoint" />
            <Array as="points">
              <mxPoint x="1050" y="440" />
            </Array>
          </mxGeometry>
        </mxCell>
        <mxCell id="i1LWnFQTRq_zaYEJp6b2-119" value="&lt;font style=&quot;font-size: 22px;&quot;&gt;ThôngTinSLSP&lt;/font&gt;" style="edgeLabel;html=1;align=center;verticalAlign=middle;resizable=0;points=[];" connectable="0" vertex="1" parent="i1LWnFQTRq_zaYEJp6b2-36">
          <mxGeometry x="0.1509" y="6" relative="1" as="geometry">
            <mxPoint x="1" as="offset" />
          </mxGeometry>
        </mxCell>
        <mxCell id="i1LWnFQTRq_zaYEJp6b2-37" value="&lt;font style=&quot;font-size: 22px;&quot;&gt;GiỏHàng&lt;/font&gt;" style="shape=link;html=1;rounded=0;curved=1;width=57.272727272727266;" edge="1" parent="1">
          <mxGeometry x="0.0182" width="100" relative="1" as="geometry">
            <mxPoint x="700" y="680" as="sourcePoint" />
            <mxPoint x="800" y="680" as="targetPoint" />
            <mxPoint as="offset" />
          </mxGeometry>
        </mxCell>
        <mxCell id="i1LWnFQTRq_zaYEJp6b2-40" value="&lt;font style=&quot;font-size: 22px;&quot;&gt;ĐơnGiao&lt;/font&gt;" style="shape=link;html=1;rounded=0;curved=1;width=57.272727272727266;" edge="1" parent="1">
          <mxGeometry x="0.0182" width="100" relative="1" as="geometry">
            <mxPoint x="827" y="850" as="sourcePoint" />
            <mxPoint x="927" y="850" as="targetPoint" />
            <mxPoint as="offset" />
          </mxGeometry>
        </mxCell>
        <mxCell id="i1LWnFQTRq_zaYEJp6b2-41" value="" style="endArrow=classic;html=1;rounded=0;curved=1;entryX=0;entryY=0;entryDx=0;entryDy=0;edgeStyle=orthogonalEdgeStyle;" edge="1" parent="1" target="dJgeBdtfag06815C9ANV-30">
          <mxGeometry width="50" height="50" relative="1" as="geometry">
            <mxPoint x="890" y="820" as="sourcePoint" />
            <mxPoint x="720" y="1010" as="targetPoint" />
            <Array as="points">
              <mxPoint x="890" y="730" />
              <mxPoint x="1375" y="730" />
            </Array>
          </mxGeometry>
        </mxCell>
        <mxCell id="i1LWnFQTRq_zaYEJp6b2-131" value="&lt;font style=&quot;font-size: 22px;&quot;&gt;DanhSáchĐơnHàng&lt;/font&gt;" style="edgeLabel;html=1;align=center;verticalAlign=middle;resizable=0;points=[];" connectable="0" vertex="1" parent="i1LWnFQTRq_zaYEJp6b2-41">
          <mxGeometry x="0.1126" y="-3" relative="1" as="geometry">
            <mxPoint x="22" as="offset" />
          </mxGeometry>
        </mxCell>
        <mxCell id="i1LWnFQTRq_zaYEJp6b2-43" value="" style="endArrow=classic;html=1;rounded=0;curved=1;entryX=0.5;entryY=1;entryDx=0;entryDy=0;edgeStyle=orthogonalEdgeStyle;" edge="1" parent="1" target="i1LWnFQTRq_zaYEJp6b2-12">
          <mxGeometry width="50" height="50" relative="1" as="geometry">
            <mxPoint x="880" y="880" as="sourcePoint" />
            <mxPoint x="720" y="1010" as="targetPoint" />
            <Array as="points">
              <mxPoint x="880" y="1050" />
              <mxPoint x="1520" y="1050" />
            </Array>
          </mxGeometry>
        </mxCell>
        <mxCell id="i1LWnFQTRq_zaYEJp6b2-132" value="&lt;font style=&quot;font-size: 22px;&quot;&gt;ThôngTinĐơnHàng&lt;/font&gt;" style="edgeLabel;html=1;align=center;verticalAlign=middle;resizable=0;points=[];" connectable="0" vertex="1" parent="i1LWnFQTRq_zaYEJp6b2-43">
          <mxGeometry x="0.1631" y="1" relative="1" as="geometry">
            <mxPoint as="offset" />
          </mxGeometry>
        </mxCell>
        <mxCell id="i1LWnFQTRq_zaYEJp6b2-44" value="&lt;font style=&quot;font-size: 22px;&quot;&gt;KháchHàng&lt;/font&gt;" style="shape=link;html=1;rounded=0;curved=1;width=57.272727272727266;" edge="1" parent="1">
          <mxGeometry x="0.0182" width="100" relative="1" as="geometry">
            <mxPoint x="727" y="470" as="sourcePoint" />
            <mxPoint x="827" y="470" as="targetPoint" />
            <mxPoint as="offset" />
          </mxGeometry>
        </mxCell>
        <mxCell id="i1LWnFQTRq_zaYEJp6b2-73" style="edgeStyle=orthogonalEdgeStyle;curved=1;rounded=0;orthogonalLoop=1;jettySize=auto;html=1;exitX=1;exitY=1;exitDx=0;exitDy=0;" edge="1" parent="1" source="dJgeBdtfag06815C9ANV-37">
          <mxGeometry relative="1" as="geometry">
            <mxPoint x="830" y="850" as="targetPoint" />
            <Array as="points">
              <mxPoint x="670" y="788" />
              <mxPoint x="670" y="880" />
              <mxPoint x="830" y="880" />
            </Array>
          </mxGeometry>
        </mxCell>
        <mxCell id="i1LWnFQTRq_zaYEJp6b2-123" value="&lt;font style=&quot;font-size: 22px;&quot;&gt;ThôngTinĐơnHàng&lt;/font&gt;" style="edgeLabel;html=1;align=center;verticalAlign=middle;resizable=0;points=[];" connectable="0" vertex="1" parent="i1LWnFQTRq_zaYEJp6b2-73">
          <mxGeometry x="-0.0467" y="-9" relative="1" as="geometry">
            <mxPoint x="-1" y="10" as="offset" />
          </mxGeometry>
        </mxCell>
        <mxCell id="dJgeBdtfag06815C9ANV-37" value="&lt;font style=&quot;font-size: 22px;&quot;&gt;ĐặtHàng&lt;/font&gt;" style="ellipse;whiteSpace=wrap;html=1;" vertex="1" parent="1">
          <mxGeometry x="270" y="720" width="240" height="80" as="geometry" />
        </mxCell>
        <mxCell id="i1LWnFQTRq_zaYEJp6b2-60" value="" style="endArrow=classic;startArrow=classic;html=1;rounded=0;curved=1;exitX=1;exitY=0.5;exitDx=0;exitDy=0;edgeStyle=orthogonalEdgeStyle;" edge="1" parent="1" source="dJgeBdtfag06815C9ANV-27">
          <mxGeometry width="50" height="50" relative="1" as="geometry">
            <mxPoint x="890" y="610" as="sourcePoint" />
            <mxPoint x="770" y="430" as="targetPoint" />
          </mxGeometry>
        </mxCell>
        <mxCell id="i1LWnFQTRq_zaYEJp6b2-108" value="&lt;font style=&quot;font-size: 22px;&quot;&gt;ThôngTinKháchHàng&lt;/font&gt;" style="edgeLabel;html=1;align=center;verticalAlign=middle;resizable=0;points=[];" connectable="0" vertex="1" parent="i1LWnFQTRq_zaYEJp6b2-60">
          <mxGeometry x="-0.1868" y="-30" relative="1" as="geometry">
            <mxPoint x="-43" y="10" as="offset" />
          </mxGeometry>
        </mxCell>
        <mxCell id="i1LWnFQTRq_zaYEJp6b2-62" value="" style="endArrow=classic;html=1;rounded=0;curved=1;exitX=1;exitY=0.5;exitDx=0;exitDy=0;edgeStyle=orthogonalEdgeStyle;" edge="1" parent="1" source="i1LWnFQTRq_zaYEJp6b2-17">
          <mxGeometry width="50" height="50" relative="1" as="geometry">
            <mxPoint x="890" y="610" as="sourcePoint" />
            <mxPoint x="750" y="650" as="targetPoint" />
          </mxGeometry>
        </mxCell>
        <mxCell id="i1LWnFQTRq_zaYEJp6b2-121" value="&lt;font style=&quot;font-size: 22px;&quot;&gt;ThôngTinSLSP&lt;/font&gt;" style="edgeLabel;html=1;align=center;verticalAlign=middle;resizable=0;points=[];" connectable="0" vertex="1" parent="i1LWnFQTRq_zaYEJp6b2-62">
          <mxGeometry x="-0.2239" y="-21" relative="1" as="geometry">
            <mxPoint x="-11" y="9" as="offset" />
          </mxGeometry>
        </mxCell>
        <mxCell id="i1LWnFQTRq_zaYEJp6b2-63" value="" style="endArrow=classic;html=1;rounded=0;curved=1;entryX=1;entryY=0;entryDx=0;entryDy=0;edgeStyle=orthogonalEdgeStyle;" edge="1" parent="1" target="i1LWnFQTRq_zaYEJp6b2-17">
          <mxGeometry width="50" height="50" relative="1" as="geometry">
            <mxPoint x="730" y="450" as="sourcePoint" />
            <mxPoint x="940" y="560" as="targetPoint" />
            <Array as="points">
              <mxPoint x="730" y="400" />
              <mxPoint x="435" y="400" />
            </Array>
          </mxGeometry>
        </mxCell>
        <mxCell id="i1LWnFQTRq_zaYEJp6b2-120" value="&lt;font style=&quot;font-size: 22px;&quot;&gt;ThôngTinKháchHàng&lt;/font&gt;" style="edgeLabel;html=1;align=center;verticalAlign=middle;resizable=0;points=[];" connectable="0" vertex="1" parent="i1LWnFQTRq_zaYEJp6b2-63">
          <mxGeometry x="0.0241" y="2" relative="1" as="geometry">
            <mxPoint x="-1" as="offset" />
          </mxGeometry>
        </mxCell>
        <mxCell id="i1LWnFQTRq_zaYEJp6b2-64" value="" style="endArrow=classic;html=1;rounded=0;curved=1;entryX=1;entryY=0.5;entryDx=0;entryDy=0;edgeStyle=orthogonalEdgeStyle;" edge="1" parent="1" target="dJgeBdtfag06815C9ANV-37">
          <mxGeometry width="50" height="50" relative="1" as="geometry">
            <mxPoint x="750" y="710" as="sourcePoint" />
            <mxPoint x="940" y="560" as="targetPoint" />
            <Array as="points">
              <mxPoint x="750" y="760" />
            </Array>
          </mxGeometry>
        </mxCell>
        <mxCell id="i1LWnFQTRq_zaYEJp6b2-122" value="&lt;font style=&quot;font-size: 22px;&quot;&gt;ThôngTinSLSP&lt;/font&gt;" style="edgeLabel;html=1;align=center;verticalAlign=middle;resizable=0;points=[];" connectable="0" vertex="1" parent="i1LWnFQTRq_zaYEJp6b2-64">
          <mxGeometry x="0.0759" y="-3" relative="1" as="geometry">
            <mxPoint x="-1" as="offset" />
          </mxGeometry>
        </mxCell>
        <mxCell id="i1LWnFQTRq_zaYEJp6b2-76" value="" style="endArrow=classic;startArrow=classic;html=1;rounded=0;curved=1;exitX=1;exitY=0.5;exitDx=0;exitDy=0;edgeStyle=orthogonalEdgeStyle;" edge="1" parent="1" source="KI0g4pAGkvJERt58rDgv-35">
          <mxGeometry width="50" height="50" relative="1" as="geometry">
            <mxPoint x="890" y="610" as="sourcePoint" />
            <mxPoint x="980" y="320" as="targetPoint" />
            <Array as="points">
              <mxPoint x="-293" y="-90" />
              <mxPoint x="980" y="-90" />
            </Array>
          </mxGeometry>
        </mxCell>
        <mxCell id="i1LWnFQTRq_zaYEJp6b2-107" value="&lt;font style=&quot;font-size: 22px;&quot;&gt;ThôngTinSảnPhẩm&lt;/font&gt;" style="edgeLabel;html=1;align=center;verticalAlign=middle;resizable=0;points=[];" connectable="0" vertex="1" parent="i1LWnFQTRq_zaYEJp6b2-76">
          <mxGeometry x="-0.1635" y="-20" relative="1" as="geometry">
            <mxPoint x="-2" y="-20" as="offset" />
          </mxGeometry>
        </mxCell>
        <mxCell id="i1LWnFQTRq_zaYEJp6b2-82" value="" style="endArrow=classic;html=1;rounded=0;curved=1;exitX=1;exitY=0.25;exitDx=0;exitDy=0;entryX=0;entryY=1;entryDx=0;entryDy=0;edgeStyle=orthogonalEdgeStyle;" edge="1" parent="1" source="dJgeBdtfag06815C9ANV-24" target="i1LWnFQTRq_zaYEJp6b2-17">
          <mxGeometry width="50" height="50" relative="1" as="geometry">
            <mxPoint x="890" y="590" as="sourcePoint" />
            <mxPoint x="940" y="540" as="targetPoint" />
            <Array as="points">
              <mxPoint x="-40" y="560" />
              <mxPoint x="265" y="560" />
            </Array>
          </mxGeometry>
        </mxCell>
        <mxCell id="UntTDOhqoVomXb6HA_2O-11" value="&lt;font style=&quot;font-size: 22px;&quot;&gt;ThôngTinSLSP&lt;/font&gt;" style="edgeLabel;html=1;align=center;verticalAlign=middle;resizable=0;points=[];" connectable="0" vertex="1" parent="i1LWnFQTRq_zaYEJp6b2-82">
          <mxGeometry x="0.1066" y="-2" relative="1" as="geometry">
            <mxPoint y="-12" as="offset" />
          </mxGeometry>
        </mxCell>
        <mxCell id="i1LWnFQTRq_zaYEJp6b2-83" value="" style="endArrow=classic;html=1;rounded=0;curved=1;exitX=1;exitY=0.75;exitDx=0;exitDy=0;edgeStyle=orthogonalEdgeStyle;" edge="1" parent="1" source="dJgeBdtfag06815C9ANV-24" target="dJgeBdtfag06815C9ANV-37">
          <mxGeometry width="50" height="50" relative="1" as="geometry">
            <mxPoint x="890" y="590" as="sourcePoint" />
            <mxPoint x="940" y="540" as="targetPoint" />
          </mxGeometry>
        </mxCell>
        <mxCell id="UntTDOhqoVomXb6HA_2O-13" value="&lt;font style=&quot;font-size: 22px;&quot;&gt;ĐặtHàng&lt;/font&gt;" style="edgeLabel;html=1;align=center;verticalAlign=middle;resizable=0;points=[];" connectable="0" vertex="1" parent="i1LWnFQTRq_zaYEJp6b2-83">
          <mxGeometry x="-0.0628" y="-24" relative="1" as="geometry">
            <mxPoint x="29" y="6" as="offset" />
          </mxGeometry>
        </mxCell>
        <mxCell id="i1LWnFQTRq_zaYEJp6b2-84" value="" style="endArrow=classic;html=1;rounded=0;curved=1;exitX=0.299;exitY=0.005;exitDx=0;exitDy=0;exitPerimeter=0;entryX=1;entryY=1;entryDx=0;entryDy=0;edgeStyle=orthogonalEdgeStyle;" edge="1" parent="1" source="dJgeBdtfag06815C9ANV-37" target="dJgeBdtfag06815C9ANV-24">
          <mxGeometry width="50" height="50" relative="1" as="geometry">
            <mxPoint x="890" y="590" as="sourcePoint" />
            <mxPoint x="940" y="540" as="targetPoint" />
            <Array as="points">
              <mxPoint x="342" y="700" />
              <mxPoint x="-40" y="700" />
            </Array>
          </mxGeometry>
        </mxCell>
        <mxCell id="UntTDOhqoVomXb6HA_2O-12" value="&lt;font style=&quot;font-size: 22px;&quot;&gt;HóaĐơn&lt;/font&gt;" style="edgeLabel;html=1;align=center;verticalAlign=middle;resizable=0;points=[];" connectable="0" vertex="1" parent="i1LWnFQTRq_zaYEJp6b2-84">
          <mxGeometry x="-0.1532" y="4" relative="1" as="geometry">
            <mxPoint x="1" y="-4" as="offset" />
          </mxGeometry>
        </mxCell>
        <mxCell id="i1LWnFQTRq_zaYEJp6b2-85" value="" style="endArrow=classic;html=1;rounded=0;curved=1;exitX=0;exitY=0.5;exitDx=0;exitDy=0;entryX=0.75;entryY=1;entryDx=0;entryDy=0;edgeStyle=orthogonalEdgeStyle;" edge="1" parent="1" source="i1LWnFQTRq_zaYEJp6b2-16" target="dJgeBdtfag06815C9ANV-24">
          <mxGeometry width="50" height="50" relative="1" as="geometry">
            <mxPoint x="890" y="590" as="sourcePoint" />
            <mxPoint x="940" y="540" as="targetPoint" />
          </mxGeometry>
        </mxCell>
        <mxCell id="i1LWnFQTRq_zaYEJp6b2-126" value="&lt;font style=&quot;font-size: 22px;&quot;&gt;HóaĐơn&lt;/font&gt;" style="edgeLabel;html=1;align=center;verticalAlign=middle;resizable=0;points=[];" connectable="0" vertex="1" parent="i1LWnFQTRq_zaYEJp6b2-85">
          <mxGeometry x="-0.3525" y="-68" relative="1" as="geometry">
            <mxPoint x="12" y="-2" as="offset" />
          </mxGeometry>
        </mxCell>
        <mxCell id="i1LWnFQTRq_zaYEJp6b2-86" value="" style="endArrow=classic;html=1;rounded=0;curved=1;exitX=0.833;exitY=1;exitDx=0;exitDy=0;exitPerimeter=0;entryX=0;entryY=0;entryDx=0;entryDy=0;edgeStyle=orthogonalEdgeStyle;" edge="1" parent="1" source="dJgeBdtfag06815C9ANV-24" target="i1LWnFQTRq_zaYEJp6b2-16">
          <mxGeometry width="50" height="50" relative="1" as="geometry">
            <mxPoint x="890" y="590" as="sourcePoint" />
            <mxPoint x="940" y="540" as="targetPoint" />
          </mxGeometry>
        </mxCell>
        <mxCell id="i1LWnFQTRq_zaYEJp6b2-125" value="&lt;font style=&quot;font-size: 22px;&quot;&gt;ThôngTinSLSP&lt;/font&gt;" style="edgeLabel;html=1;align=center;verticalAlign=middle;resizable=0;points=[];" connectable="0" vertex="1" parent="i1LWnFQTRq_zaYEJp6b2-86">
          <mxGeometry x="0.0507" y="-4" relative="1" as="geometry">
            <mxPoint as="offset" />
          </mxGeometry>
        </mxCell>
        <mxCell id="i1LWnFQTRq_zaYEJp6b2-88" value="" style="endArrow=classic;html=1;rounded=0;curved=1;entryX=1;entryY=0.5;entryDx=0;entryDy=0;edgeStyle=orthogonalEdgeStyle;" edge="1" parent="1" target="i1LWnFQTRq_zaYEJp6b2-19">
          <mxGeometry width="50" height="50" relative="1" as="geometry">
            <mxPoint x="860" y="890" as="sourcePoint" />
            <mxPoint x="940" y="1100" as="targetPoint" />
            <Array as="points">
              <mxPoint x="860" y="1160" />
            </Array>
          </mxGeometry>
        </mxCell>
        <mxCell id="i1LWnFQTRq_zaYEJp6b2-128" value="&lt;font style=&quot;font-size: 22px;&quot;&gt;ThôngTinĐơnHàng&lt;/font&gt;" style="edgeLabel;html=1;align=center;verticalAlign=middle;resizable=0;points=[];" connectable="0" vertex="1" parent="i1LWnFQTRq_zaYEJp6b2-88">
          <mxGeometry x="0.2594" y="-30" relative="1" as="geometry">
            <mxPoint as="offset" />
          </mxGeometry>
        </mxCell>
        <mxCell id="i1LWnFQTRq_zaYEJp6b2-89" value="" style="endArrow=classic;html=1;rounded=0;curved=1;exitX=1;exitY=0.5;exitDx=0;exitDy=0;edgeStyle=orthogonalEdgeStyle;" edge="1" parent="1" source="i1LWnFQTRq_zaYEJp6b2-16">
          <mxGeometry width="50" height="50" relative="1" as="geometry">
            <mxPoint x="890" y="1150" as="sourcePoint" />
            <mxPoint x="840" y="890" as="targetPoint" />
          </mxGeometry>
        </mxCell>
        <mxCell id="i1LWnFQTRq_zaYEJp6b2-124" value="&lt;font style=&quot;font-size: 22px;&quot;&gt;ThôngTinĐơnHàng&lt;/font&gt;" style="edgeLabel;html=1;align=center;verticalAlign=middle;resizable=0;points=[];" connectable="0" vertex="1" parent="i1LWnFQTRq_zaYEJp6b2-89">
          <mxGeometry x="-0.3182" y="3" relative="1" as="geometry">
            <mxPoint x="-1" as="offset" />
          </mxGeometry>
        </mxCell>
        <mxCell id="i1LWnFQTRq_zaYEJp6b2-95" value="" style="endArrow=classic;html=1;rounded=0;curved=1;entryX=0;entryY=0.5;entryDx=0;entryDy=0;edgeStyle=orthogonalEdgeStyle;" edge="1" parent="1" target="i1LWnFQTRq_zaYEJp6b2-23">
          <mxGeometry width="50" height="50" relative="1" as="geometry">
            <mxPoint x="830" y="480" as="sourcePoint" />
            <mxPoint x="730" y="620" as="targetPoint" />
          </mxGeometry>
        </mxCell>
        <mxCell id="i1LWnFQTRq_zaYEJp6b2-130" value="&lt;font style=&quot;font-size: 22px;&quot;&gt;DanhSáchKháchHàng&lt;/font&gt;" style="edgeLabel;html=1;align=center;verticalAlign=middle;resizable=0;points=[];" connectable="0" vertex="1" parent="i1LWnFQTRq_zaYEJp6b2-95">
          <mxGeometry x="-0.0303" y="-4" relative="1" as="geometry">
            <mxPoint x="78" y="51" as="offset" />
          </mxGeometry>
        </mxCell>
        <mxCell id="i1LWnFQTRq_zaYEJp6b2-98" value="" style="endArrow=classic;html=1;rounded=0;curved=1;exitX=0;exitY=0.5;exitDx=0;exitDy=0;entryX=0;entryY=1;entryDx=0;entryDy=0;edgeStyle=orthogonalEdgeStyle;" edge="1" parent="1" source="i1LWnFQTRq_zaYEJp6b2-19" target="dJgeBdtfag06815C9ANV-24">
          <mxGeometry width="50" height="50" relative="1" as="geometry">
            <mxPoint x="680" y="670" as="sourcePoint" />
            <mxPoint x="730" y="620" as="targetPoint" />
          </mxGeometry>
        </mxCell>
        <mxCell id="i1LWnFQTRq_zaYEJp6b2-129" value="&lt;font style=&quot;font-size: 22px;&quot;&gt;Thông&lt;br&gt;Tin&lt;br&gt;Tình&lt;br&gt;Trạng&lt;br&gt;Đơn&lt;br&gt;Hàng&lt;/font&gt;" style="edgeLabel;html=1;align=center;verticalAlign=middle;resizable=0;points=[];" connectable="0" vertex="1" parent="i1LWnFQTRq_zaYEJp6b2-98">
          <mxGeometry x="0.0056" y="-87" relative="1" as="geometry">
            <mxPoint x="-67" y="-187" as="offset" />
          </mxGeometry>
        </mxCell>
        <mxCell id="i1LWnFQTRq_zaYEJp6b2-99" value="" style="endArrow=classic;html=1;rounded=0;curved=1;exitX=0.121;exitY=1.017;exitDx=0;exitDy=0;exitPerimeter=0;entryX=0.055;entryY=0.236;entryDx=0;entryDy=0;entryPerimeter=0;edgeStyle=orthogonalEdgeStyle;" edge="1" parent="1" source="dJgeBdtfag06815C9ANV-24" target="i1LWnFQTRq_zaYEJp6b2-19">
          <mxGeometry width="50" height="50" relative="1" as="geometry">
            <mxPoint x="680" y="670" as="sourcePoint" />
            <mxPoint x="730" y="620" as="targetPoint" />
            <Array as="points">
              <mxPoint x="-100" y="602" />
              <mxPoint x="-100" y="1139" />
            </Array>
          </mxGeometry>
        </mxCell>
        <mxCell id="i1LWnFQTRq_zaYEJp6b2-127" value="&lt;font style=&quot;font-size: 22px;&quot;&gt;Y/cầu&lt;br&gt;Xem&lt;br&gt;Thông&lt;br&gt;Tin&lt;br&gt;Đơn&lt;br&gt;Hàng&lt;/font&gt;" style="edgeLabel;html=1;align=center;verticalAlign=middle;resizable=0;points=[];" connectable="0" vertex="1" parent="i1LWnFQTRq_zaYEJp6b2-99">
          <mxGeometry x="0.1598" y="6" relative="1" as="geometry">
            <mxPoint y="31" as="offset" />
          </mxGeometry>
        </mxCell>
        <mxCell id="i1LWnFQTRq_zaYEJp6b2-113" value="" style="endArrow=classic;html=1;rounded=0;curved=1;exitX=0.25;exitY=0;exitDx=0;exitDy=0;entryX=1;entryY=0.5;entryDx=0;entryDy=0;edgeStyle=orthogonalEdgeStyle;" edge="1" parent="1" source="i1LWnFQTRq_zaYEJp6b2-10" target="i1LWnFQTRq_zaYEJp6b2-13">
          <mxGeometry width="50" height="50" relative="1" as="geometry">
            <mxPoint x="680" y="590" as="sourcePoint" />
            <mxPoint x="730" y="540" as="targetPoint" />
          </mxGeometry>
        </mxCell>
        <mxCell id="i1LWnFQTRq_zaYEJp6b2-115" value="&lt;font style=&quot;font-size: 22px;&quot;&gt;ThôngTinSảnPhẩmMới&lt;/font&gt;" style="edgeLabel;html=1;align=center;verticalAlign=middle;resizable=0;points=[];" connectable="0" vertex="1" parent="i1LWnFQTRq_zaYEJp6b2-113">
          <mxGeometry x="0.1488" y="32" relative="1" as="geometry">
            <mxPoint x="-10" y="-2" as="offset" />
          </mxGeometry>
        </mxCell>
        <mxCell id="i1LWnFQTRq_zaYEJp6b2-114" value="" style="endArrow=classic;html=1;rounded=0;curved=1;entryX=0.145;entryY=-0.009;entryDx=0;entryDy=0;entryPerimeter=0;exitX=1;exitY=1;exitDx=0;exitDy=0;edgeStyle=orthogonalEdgeStyle;" edge="1" parent="1" source="i1LWnFQTRq_zaYEJp6b2-13" target="i1LWnFQTRq_zaYEJp6b2-10">
          <mxGeometry width="50" height="50" relative="1" as="geometry">
            <mxPoint x="680" y="590" as="sourcePoint" />
            <mxPoint x="730" y="540" as="targetPoint" />
            <Array as="points">
              <mxPoint x="1455" y="400" />
              <mxPoint x="1915" y="400" />
            </Array>
          </mxGeometry>
        </mxCell>
        <mxCell id="i1LWnFQTRq_zaYEJp6b2-116" value="&lt;font style=&quot;font-size: 22px;&quot;&gt;XácNhậnThêm&lt;br&gt;ThànhCông&lt;/font&gt;" style="edgeLabel;html=1;align=center;verticalAlign=middle;resizable=0;points=[];" connectable="0" vertex="1" parent="i1LWnFQTRq_zaYEJp6b2-114">
          <mxGeometry x="-0.0567" y="1" relative="1" as="geometry">
            <mxPoint x="75" y="-19" as="offset" />
          </mxGeometry>
        </mxCell>
        <mxCell id="UntTDOhqoVomXb6HA_2O-1" value="&lt;font style=&quot;font-size: 22px;&quot;&gt;TạoTàiKhoản&lt;/font&gt;" style="ellipse;whiteSpace=wrap;html=1;" vertex="1" parent="1">
          <mxGeometry x="280" y="290" width="240" height="80" as="geometry" />
        </mxCell>
        <mxCell id="UntTDOhqoVomXb6HA_2O-2" value="" style="endArrow=classic;html=1;rounded=0;exitX=1;exitY=0.25;exitDx=0;exitDy=0;entryX=0;entryY=0.5;entryDx=0;entryDy=0;edgeStyle=orthogonalEdgeStyle;curved=1;" edge="1" parent="1" source="dJgeBdtfag06815C9ANV-24" target="UntTDOhqoVomXb6HA_2O-1">
          <mxGeometry width="50" height="50" relative="1" as="geometry">
            <mxPoint x="780" y="510" as="sourcePoint" />
            <mxPoint x="830" y="460" as="targetPoint" />
            <Array as="points">
              <mxPoint x="-40" y="330" />
            </Array>
          </mxGeometry>
        </mxCell>
        <mxCell id="UntTDOhqoVomXb6HA_2O-6" value="&lt;font style=&quot;font-size: 22px;&quot;&gt;ThôngTin&lt;br&gt;KháchHàng&lt;/font&gt;" style="edgeLabel;html=1;align=center;verticalAlign=middle;resizable=0;points=[];" connectable="0" vertex="1" parent="UntTDOhqoVomXb6HA_2O-2">
          <mxGeometry x="0.1493" y="-35" relative="1" as="geometry">
            <mxPoint x="23" y="15" as="offset" />
          </mxGeometry>
        </mxCell>
        <mxCell id="UntTDOhqoVomXb6HA_2O-3" value="" style="endArrow=classic;html=1;rounded=0;exitX=0;exitY=1;exitDx=0;exitDy=0;edgeStyle=orthogonalEdgeStyle;curved=1;" edge="1" parent="1" source="UntTDOhqoVomXb6HA_2O-1" target="dJgeBdtfag06815C9ANV-24">
          <mxGeometry width="50" height="50" relative="1" as="geometry">
            <mxPoint x="780" y="510" as="sourcePoint" />
            <mxPoint x="830" y="460" as="targetPoint" />
            <Array as="points">
              <mxPoint x="315" y="500" />
            </Array>
          </mxGeometry>
        </mxCell>
        <mxCell id="UntTDOhqoVomXb6HA_2O-7" value="&lt;font style=&quot;font-size: 22px;&quot;&gt;ThôngTinTrangChủ&lt;/font&gt;" style="edgeLabel;html=1;align=center;verticalAlign=middle;resizable=0;points=[];" connectable="0" vertex="1" parent="UntTDOhqoVomXb6HA_2O-3">
          <mxGeometry x="0.1743" y="-15" relative="1" as="geometry">
            <mxPoint x="-45" y="-5" as="offset" />
          </mxGeometry>
        </mxCell>
        <mxCell id="UntTDOhqoVomXb6HA_2O-4" value="" style="endArrow=classic;html=1;rounded=0;exitX=1;exitY=0.5;exitDx=0;exitDy=0;edgeStyle=orthogonalEdgeStyle;curved=1;" edge="1" parent="1" source="UntTDOhqoVomXb6HA_2O-1">
          <mxGeometry width="50" height="50" relative="1" as="geometry">
            <mxPoint x="780" y="510" as="sourcePoint" />
            <mxPoint x="760" y="440" as="targetPoint" />
          </mxGeometry>
        </mxCell>
        <mxCell id="UntTDOhqoVomXb6HA_2O-5" value="&lt;font style=&quot;font-size: 22px;&quot;&gt;ThôngTinKháchHàng&lt;/font&gt;" style="edgeLabel;html=1;align=center;verticalAlign=middle;resizable=0;points=[];" connectable="0" vertex="1" parent="UntTDOhqoVomXb6HA_2O-4">
          <mxGeometry x="-0.2733" y="-14" relative="1" as="geometry">
            <mxPoint x="1" as="offset" />
          </mxGeometry>
        </mxCell>
        <mxCell id="UntTDOhqoVomXb6HA_2O-8" value="" style="endArrow=classic;html=1;rounded=0;exitX=0.026;exitY=0.688;exitDx=0;exitDy=0;exitPerimeter=0;entryX=0.849;entryY=-0.009;entryDx=0;entryDy=0;entryPerimeter=0;edgeStyle=orthogonalEdgeStyle;curved=1;" edge="1" parent="1" source="dJgeBdtfag06815C9ANV-27" target="dJgeBdtfag06815C9ANV-24">
          <mxGeometry width="50" height="50" relative="1" as="geometry">
            <mxPoint x="740" y="530" as="sourcePoint" />
            <mxPoint x="830" y="460" as="targetPoint" />
            <Array as="points">
              <mxPoint x="215" y="320" />
              <mxPoint x="-76" y="320" />
            </Array>
          </mxGeometry>
        </mxCell>
        <mxCell id="UntTDOhqoVomXb6HA_2O-9" value="&lt;span style=&quot;font-size: 22px;&quot;&gt;ThôngTinTrangChủ&lt;/span&gt;" style="edgeLabel;html=1;align=center;verticalAlign=middle;resizable=0;points=[];" connectable="0" vertex="1" parent="UntTDOhqoVomXb6HA_2O-8">
          <mxGeometry x="-0.3924" y="-19" relative="1" as="geometry">
            <mxPoint x="31" y="-31" as="offset" />
          </mxGeometry>
        </mxCell>
        <mxCell id="sWbS09OjM8sN-uaaerzc-6" value="" style="curved=1;endArrow=classic;html=1;rounded=0;edgeStyle=orthogonalEdgeStyle;exitX=0.613;exitY=-0.008;exitDx=0;exitDy=0;entryX=1;entryY=0;entryDx=0;entryDy=0;exitPerimeter=0;" edge="1" parent="1" source="i1LWnFQTRq_zaYEJp6b2-10" target="i1LWnFQTRq_zaYEJp6b2-11">
          <mxGeometry width="50" height="50" relative="1" as="geometry">
            <mxPoint x="2110" y="340" as="sourcePoint" />
            <mxPoint x="2160" y="290" as="targetPoint" />
            <Array as="points">
              <mxPoint x="2027" y="82" />
            </Array>
          </mxGeometry>
        </mxCell>
        <mxCell id="sWbS09OjM8sN-uaaerzc-8" value="&lt;font style=&quot;font-size: 22px;&quot;&gt;ThôngTinSảnPhẩm&lt;/font&gt;" style="edgeLabel;html=1;align=center;verticalAlign=middle;resizable=0;points=[];" connectable="0" vertex="1" parent="sWbS09OjM8sN-uaaerzc-6">
          <mxGeometry x="0.1421" y="62" relative="1" as="geometry">
            <mxPoint x="1" as="offset" />
          </mxGeometry>
        </mxCell>
        <mxCell id="sWbS09OjM8sN-uaaerzc-7" value="" style="curved=1;endArrow=classic;html=1;rounded=0;edgeStyle=orthogonalEdgeStyle;exitX=1;exitY=0.5;exitDx=0;exitDy=0;entryX=0.5;entryY=0;entryDx=0;entryDy=0;" edge="1" parent="1" source="i1LWnFQTRq_zaYEJp6b2-11" target="i1LWnFQTRq_zaYEJp6b2-10">
          <mxGeometry width="50" height="50" relative="1" as="geometry">
            <mxPoint x="1520" y="230" as="sourcePoint" />
            <mxPoint x="1570" y="180" as="targetPoint" />
            <Array as="points">
              <mxPoint x="1250" y="230" />
              <mxPoint x="2000" y="230" />
            </Array>
          </mxGeometry>
        </mxCell>
        <mxCell id="sWbS09OjM8sN-uaaerzc-9" value="&lt;font style=&quot;font-size: 22px;&quot;&gt;XácNhậnCậpNhật&lt;br style=&quot;border-color: var(--border-color);&quot;&gt;ThànhCông&lt;/font&gt;" style="edgeLabel;html=1;align=center;verticalAlign=middle;resizable=0;points=[];" connectable="0" vertex="1" parent="sWbS09OjM8sN-uaaerzc-7">
          <mxGeometry x="-0.0786" y="-2" relative="1" as="geometry">
            <mxPoint y="-12" as="offset" />
          </mxGeometry>
        </mxCell>
        <mxCell id="FPxCk5dC9V5jqVi7kggv-1" value="&lt;span style=&quot;font-size: 22px;&quot;&gt;NhânViên&lt;/span&gt;" style="shape=link;html=1;rounded=0;curved=1;width=57.272727272727266;" edge="1" parent="1">
          <mxGeometry x="0.0182" width="100" relative="1" as="geometry">
            <mxPoint x="3060" y="290" as="sourcePoint" />
            <mxPoint x="3160" y="290" as="targetPoint" />
            <mxPoint as="offset" />
          </mxGeometry>
        </mxCell>
        <mxCell id="FPxCk5dC9V5jqVi7kggv-2" value="&lt;span style=&quot;font-size: 22px;&quot;&gt;ĐơnNhập&lt;/span&gt;" style="shape=link;html=1;rounded=0;curved=1;width=57.272727272727266;" edge="1" parent="1">
          <mxGeometry x="0.0182" width="100" relative="1" as="geometry">
            <mxPoint x="2845" y="1090" as="sourcePoint" />
            <mxPoint x="2945" y="1090" as="targetPoint" />
            <mxPoint as="offset" />
          </mxGeometry>
        </mxCell>
        <mxCell id="FPxCk5dC9V5jqVi7kggv-3" value="&lt;span style=&quot;font-size: 22px;&quot;&gt;ĐăngXuất&lt;/span&gt;" style="ellipse;whiteSpace=wrap;html=1;" vertex="1" parent="1">
          <mxGeometry x="50" y="-20" width="240" height="80" as="geometry" />
        </mxCell>
        <mxCell id="FPxCk5dC9V5jqVi7kggv-10" value="" style="endArrow=classic;html=1;rounded=0;exitX=0.204;exitY=0.025;exitDx=0;exitDy=0;exitPerimeter=0;entryX=0;entryY=0.5;entryDx=0;entryDy=0;edgeStyle=orthogonalEdgeStyle;curved=1;" edge="1" parent="1" source="dJgeBdtfag06815C9ANV-24" target="FPxCk5dC9V5jqVi7kggv-3">
          <mxGeometry width="50" height="50" relative="1" as="geometry">
            <mxPoint x="530" y="470" as="sourcePoint" />
            <mxPoint x="580" y="420" as="targetPoint" />
            <Array as="points">
              <mxPoint x="-231" y="20" />
            </Array>
          </mxGeometry>
        </mxCell>
        <mxCell id="FPxCk5dC9V5jqVi7kggv-71" value="&lt;font style=&quot;font-size: 22px;&quot;&gt;ĐăngXuất&lt;/font&gt;" style="edgeLabel;html=1;align=center;verticalAlign=middle;resizable=0;points=[];" connectable="0" vertex="1" parent="FPxCk5dC9V5jqVi7kggv-10">
          <mxGeometry x="-0.1117" y="-58" relative="1" as="geometry">
            <mxPoint y="1" as="offset" />
          </mxGeometry>
        </mxCell>
        <mxCell id="FPxCk5dC9V5jqVi7kggv-11" value="" style="endArrow=classic;html=1;rounded=0;exitX=0;exitY=1;exitDx=0;exitDy=0;entryX=0.25;entryY=0;entryDx=0;entryDy=0;edgeStyle=orthogonalEdgeStyle;curved=1;" edge="1" parent="1" source="FPxCk5dC9V5jqVi7kggv-3" target="dJgeBdtfag06815C9ANV-24">
          <mxGeometry width="50" height="50" relative="1" as="geometry">
            <mxPoint x="530" y="470" as="sourcePoint" />
            <mxPoint x="580" y="420" as="targetPoint" />
            <Array as="points">
              <mxPoint x="85" y="210" />
              <mxPoint x="-170" y="210" />
              <mxPoint x="-170" y="480" />
            </Array>
          </mxGeometry>
        </mxCell>
        <mxCell id="FPxCk5dC9V5jqVi7kggv-72" value="&lt;font style=&quot;font-size: 22px;&quot;&gt;ThôngTin&lt;br&gt;TrangChủ&lt;/font&gt;" style="edgeLabel;html=1;align=center;verticalAlign=middle;resizable=0;points=[];" connectable="0" vertex="1" parent="FPxCk5dC9V5jqVi7kggv-11">
          <mxGeometry x="-0.1177" y="8" relative="1" as="geometry">
            <mxPoint x="38" y="-28" as="offset" />
          </mxGeometry>
        </mxCell>
        <mxCell id="FPxCk5dC9V5jqVi7kggv-12" value="" style="endArrow=classic;html=1;rounded=0;edgeStyle=orthogonalEdgeStyle;curved=1;entryX=1;entryY=0;entryDx=0;entryDy=0;" edge="1" parent="1" target="i1LWnFQTRq_zaYEJp6b2-16">
          <mxGeometry width="50" height="50" relative="1" as="geometry">
            <mxPoint x="810" y="500" as="sourcePoint" />
            <mxPoint x="580" y="420" as="targetPoint" />
            <Array as="points">
              <mxPoint x="830" y="501" />
              <mxPoint x="830" y="982" />
            </Array>
          </mxGeometry>
        </mxCell>
        <mxCell id="FPxCk5dC9V5jqVi7kggv-13" value="&lt;font style=&quot;font-size: 22px;&quot;&gt;Thông&lt;br&gt;Tin&lt;br&gt;Khách&lt;br&gt;Hàng&lt;/font&gt;" style="edgeLabel;html=1;align=center;verticalAlign=middle;resizable=0;points=[];" connectable="0" vertex="1" parent="FPxCk5dC9V5jqVi7kggv-12">
          <mxGeometry x="-0.3137" y="-1" relative="1" as="geometry">
            <mxPoint x="21" y="-155" as="offset" />
          </mxGeometry>
        </mxCell>
        <mxCell id="FPxCk5dC9V5jqVi7kggv-14" value="&lt;font style=&quot;font-size: 22px;&quot;&gt;TạoĐơnHàng&lt;/font&gt;" style="ellipse;whiteSpace=wrap;html=1;" vertex="1" parent="1">
          <mxGeometry x="2220" y="890" width="240" height="80" as="geometry" />
        </mxCell>
        <mxCell id="FPxCk5dC9V5jqVi7kggv-15" value="&lt;font style=&quot;font-size: 22px;&quot;&gt;ThêmNhânViên&lt;/font&gt;" style="ellipse;whiteSpace=wrap;html=1;" vertex="1" parent="1">
          <mxGeometry x="2560" y="340" width="240" height="80" as="geometry" />
        </mxCell>
        <mxCell id="FPxCk5dC9V5jqVi7kggv-16" value="&lt;span style=&quot;font-size: 22px;&quot;&gt;CậpNhậtNhânViên&lt;/span&gt;" style="ellipse;whiteSpace=wrap;html=1;" vertex="1" parent="1">
          <mxGeometry x="2460" y="620" width="240" height="80" as="geometry" />
        </mxCell>
        <mxCell id="FPxCk5dC9V5jqVi7kggv-17" value="&lt;span style=&quot;font-size: 22px;&quot;&gt;PhânQuyền&lt;/span&gt;" style="ellipse;whiteSpace=wrap;html=1;" vertex="1" parent="1">
          <mxGeometry x="2550" y="90" width="240" height="80" as="geometry" />
        </mxCell>
        <mxCell id="FPxCk5dC9V5jqVi7kggv-18" value="&lt;span style=&quot;font-size: 22px;&quot;&gt;TìnhTrạngĐơn&lt;/span&gt;" style="ellipse;whiteSpace=wrap;html=1;" vertex="1" parent="1">
          <mxGeometry x="1980" y="1100" width="240" height="80" as="geometry" />
        </mxCell>
        <mxCell id="FPxCk5dC9V5jqVi7kggv-19" value="&lt;span style=&quot;font-size: 22px;&quot;&gt;XemDanhSáchNhânViên&lt;/span&gt;" style="ellipse;whiteSpace=wrap;html=1;" vertex="1" parent="1">
          <mxGeometry x="2210" y="-30" width="240" height="80" as="geometry" />
        </mxCell>
        <mxCell id="FPxCk5dC9V5jqVi7kggv-21" value="" style="endArrow=classic;html=1;rounded=0;exitX=1;exitY=0.25;exitDx=0;exitDy=0;entryX=0;entryY=0.5;entryDx=0;entryDy=0;edgeStyle=orthogonalEdgeStyle;curved=1;" edge="1" parent="1" source="i1LWnFQTRq_zaYEJp6b2-10" target="FPxCk5dC9V5jqVi7kggv-15">
          <mxGeometry width="50" height="50" relative="1" as="geometry">
            <mxPoint x="2110" y="580" as="sourcePoint" />
            <mxPoint x="2160" y="530" as="targetPoint" />
            <Array as="points">
              <mxPoint x="2120" y="380" />
            </Array>
          </mxGeometry>
        </mxCell>
        <mxCell id="FPxCk5dC9V5jqVi7kggv-39" value="&lt;font style=&quot;font-size: 22px;&quot;&gt;ThôngTinNhânViên&lt;/font&gt;" style="edgeLabel;html=1;align=center;verticalAlign=middle;resizable=0;points=[];" connectable="0" vertex="1" parent="FPxCk5dC9V5jqVi7kggv-21">
          <mxGeometry x="0.2105" y="-11" relative="1" as="geometry">
            <mxPoint x="1" as="offset" />
          </mxGeometry>
        </mxCell>
        <mxCell id="FPxCk5dC9V5jqVi7kggv-22" value="" style="endArrow=classic;html=1;rounded=0;exitX=0;exitY=1;exitDx=0;exitDy=0;entryX=1;entryY=0.25;entryDx=0;entryDy=0;edgeStyle=orthogonalEdgeStyle;curved=1;" edge="1" parent="1" source="FPxCk5dC9V5jqVi7kggv-15" target="i1LWnFQTRq_zaYEJp6b2-10">
          <mxGeometry width="50" height="50" relative="1" as="geometry">
            <mxPoint x="2110" y="580" as="sourcePoint" />
            <mxPoint x="2160" y="530" as="targetPoint" />
            <Array as="points">
              <mxPoint x="2595" y="510" />
            </Array>
          </mxGeometry>
        </mxCell>
        <mxCell id="FPxCk5dC9V5jqVi7kggv-40" value="&lt;font style=&quot;font-size: 22px;&quot;&gt;XácNhậnThêmNhânViênThànhCông&lt;/font&gt;" style="edgeLabel;html=1;align=center;verticalAlign=middle;resizable=0;points=[];" connectable="0" vertex="1" parent="FPxCk5dC9V5jqVi7kggv-22">
          <mxGeometry x="0.1299" y="-13" relative="1" as="geometry">
            <mxPoint as="offset" />
          </mxGeometry>
        </mxCell>
        <mxCell id="FPxCk5dC9V5jqVi7kggv-25" value="" style="endArrow=classic;html=1;rounded=0;entryX=0;entryY=0;entryDx=0;entryDy=0;exitX=1;exitY=0.5;exitDx=0;exitDy=0;edgeStyle=orthogonalEdgeStyle;curved=1;" edge="1" parent="1" source="i1LWnFQTRq_zaYEJp6b2-10" target="FPxCk5dC9V5jqVi7kggv-16">
          <mxGeometry width="50" height="50" relative="1" as="geometry">
            <mxPoint x="2110" y="580" as="sourcePoint" />
            <mxPoint x="2160" y="530" as="targetPoint" />
          </mxGeometry>
        </mxCell>
        <mxCell id="FPxCk5dC9V5jqVi7kggv-41" value="&lt;font style=&quot;font-size: 22px;&quot;&gt;ThôngTinNhânViên&lt;/font&gt;" style="edgeLabel;html=1;align=center;verticalAlign=middle;resizable=0;points=[];" connectable="0" vertex="1" parent="FPxCk5dC9V5jqVi7kggv-25">
          <mxGeometry x="-0.1133" y="-9" relative="1" as="geometry">
            <mxPoint x="-1" as="offset" />
          </mxGeometry>
        </mxCell>
        <mxCell id="FPxCk5dC9V5jqVi7kggv-26" value="" style="endArrow=classic;html=1;rounded=0;exitX=0;exitY=0.5;exitDx=0;exitDy=0;entryX=1;entryY=0.75;entryDx=0;entryDy=0;edgeStyle=orthogonalEdgeStyle;curved=1;" edge="1" parent="1" source="FPxCk5dC9V5jqVi7kggv-16" target="i1LWnFQTRq_zaYEJp6b2-10">
          <mxGeometry width="50" height="50" relative="1" as="geometry">
            <mxPoint x="2110" y="580" as="sourcePoint" />
            <mxPoint x="2160" y="530" as="targetPoint" />
            <Array as="points">
              <mxPoint x="2120" y="660" />
            </Array>
          </mxGeometry>
        </mxCell>
        <mxCell id="FPxCk5dC9V5jqVi7kggv-46" value="&lt;font style=&quot;font-size: 22px;&quot;&gt;XácNhậnCậpNhậtNVThànhCông&lt;/font&gt;" style="edgeLabel;html=1;align=center;verticalAlign=middle;resizable=0;points=[];" connectable="0" vertex="1" parent="FPxCk5dC9V5jqVi7kggv-26">
          <mxGeometry x="-0.2047" y="-11" relative="1" as="geometry">
            <mxPoint x="20" y="-19" as="offset" />
          </mxGeometry>
        </mxCell>
        <mxCell id="FPxCk5dC9V5jqVi7kggv-28" value="" style="endArrow=classic;html=1;rounded=0;entryX=0;entryY=0.5;entryDx=0;entryDy=0;edgeStyle=orthogonalEdgeStyle;curved=1;" edge="1" parent="1" source="i1LWnFQTRq_zaYEJp6b2-10" target="FPxCk5dC9V5jqVi7kggv-17">
          <mxGeometry width="50" height="50" relative="1" as="geometry">
            <mxPoint x="2230" y="410" as="sourcePoint" />
            <mxPoint x="2280" y="360" as="targetPoint" />
            <Array as="points">
              <mxPoint x="2090" y="130" />
            </Array>
          </mxGeometry>
        </mxCell>
        <mxCell id="FPxCk5dC9V5jqVi7kggv-69" value="&lt;font style=&quot;font-size: 22px;&quot;&gt;ThôngTinNhânViên&lt;/font&gt;" style="edgeLabel;html=1;align=center;verticalAlign=middle;resizable=0;points=[];" connectable="0" vertex="1" parent="FPxCk5dC9V5jqVi7kggv-28">
          <mxGeometry x="0.3377" y="-39" relative="1" as="geometry">
            <mxPoint x="78" y="-19" as="offset" />
          </mxGeometry>
        </mxCell>
        <mxCell id="FPxCk5dC9V5jqVi7kggv-29" value="" style="endArrow=classic;html=1;rounded=0;exitX=0.038;exitY=0.738;exitDx=0;exitDy=0;exitPerimeter=0;entryX=0.929;entryY=0.008;entryDx=0;entryDy=0;entryPerimeter=0;edgeStyle=orthogonalEdgeStyle;curved=1;" edge="1" parent="1" source="FPxCk5dC9V5jqVi7kggv-17" target="i1LWnFQTRq_zaYEJp6b2-10">
          <mxGeometry width="50" height="50" relative="1" as="geometry">
            <mxPoint x="2230" y="410" as="sourcePoint" />
            <mxPoint x="2280" y="360" as="targetPoint" />
            <Array as="points">
              <mxPoint x="2559" y="320" />
              <mxPoint x="2103" y="320" />
            </Array>
          </mxGeometry>
        </mxCell>
        <mxCell id="FPxCk5dC9V5jqVi7kggv-70" value="&lt;font style=&quot;font-size: 22px;&quot;&gt;Quyền&lt;/font&gt;" style="edgeLabel;html=1;align=center;verticalAlign=middle;resizable=0;points=[];" connectable="0" vertex="1" parent="FPxCk5dC9V5jqVi7kggv-29">
          <mxGeometry x="-0.1297" y="2" relative="1" as="geometry">
            <mxPoint x="1" as="offset" />
          </mxGeometry>
        </mxCell>
        <mxCell id="FPxCk5dC9V5jqVi7kggv-30" value="" style="endArrow=classic;html=1;rounded=0;entryX=0;entryY=0;entryDx=0;entryDy=0;exitX=0.75;exitY=1;exitDx=0;exitDy=0;edgeStyle=orthogonalEdgeStyle;curved=1;" edge="1" parent="1" source="i1LWnFQTRq_zaYEJp6b2-10" target="FPxCk5dC9V5jqVi7kggv-14">
          <mxGeometry width="50" height="50" relative="1" as="geometry">
            <mxPoint x="1840" y="650" as="sourcePoint" />
            <mxPoint x="1890" y="600" as="targetPoint" />
            <Array as="points">
              <mxPoint x="2170" y="600" />
              <mxPoint x="2170" y="902" />
            </Array>
          </mxGeometry>
        </mxCell>
        <mxCell id="FPxCk5dC9V5jqVi7kggv-47" value="&lt;font style=&quot;font-size: 22px;&quot;&gt;Thông&lt;br&gt;Tin&lt;br&gt;Đơn&lt;br&gt;Hàng&lt;/font&gt;" style="edgeLabel;html=1;align=center;verticalAlign=middle;resizable=0;points=[];" connectable="0" vertex="1" parent="FPxCk5dC9V5jqVi7kggv-30">
          <mxGeometry x="-0.0462" y="-1" relative="1" as="geometry">
            <mxPoint x="1" y="34" as="offset" />
          </mxGeometry>
        </mxCell>
        <mxCell id="FPxCk5dC9V5jqVi7kggv-31" value="" style="endArrow=classic;html=1;rounded=0;exitX=0;exitY=0.5;exitDx=0;exitDy=0;entryX=0.654;entryY=1.008;entryDx=0;entryDy=0;edgeStyle=orthogonalEdgeStyle;curved=1;entryPerimeter=0;" edge="1" parent="1" source="FPxCk5dC9V5jqVi7kggv-14" target="i1LWnFQTRq_zaYEJp6b2-10">
          <mxGeometry width="50" height="50" relative="1" as="geometry">
            <mxPoint x="1840" y="650" as="sourcePoint" />
            <mxPoint x="1890" y="600" as="targetPoint" />
          </mxGeometry>
        </mxCell>
        <mxCell id="FPxCk5dC9V5jqVi7kggv-62" value="&lt;font style=&quot;font-size: 22px;&quot;&gt;Xác&lt;br&gt;Nhận&lt;br&gt;Tạo&lt;br&gt;Đơn&lt;br&gt;Hàng&lt;br&gt;Thành&lt;br&gt;Công&lt;/font&gt;" style="edgeLabel;html=1;align=center;verticalAlign=middle;resizable=0;points=[];" connectable="0" vertex="1" parent="FPxCk5dC9V5jqVi7kggv-31">
          <mxGeometry x="0.3791" y="-16" relative="1" as="geometry">
            <mxPoint x="27" as="offset" />
          </mxGeometry>
        </mxCell>
        <mxCell id="FPxCk5dC9V5jqVi7kggv-32" value="" style="endArrow=classic;startArrow=classic;html=1;rounded=0;exitX=1;exitY=0.5;exitDx=0;exitDy=0;edgeStyle=orthogonalEdgeStyle;curved=1;" edge="1" parent="1" source="FPxCk5dC9V5jqVi7kggv-15">
          <mxGeometry width="50" height="50" relative="1" as="geometry">
            <mxPoint x="1840" y="650" as="sourcePoint" />
            <mxPoint x="3110" y="320" as="targetPoint" />
          </mxGeometry>
        </mxCell>
        <mxCell id="FPxCk5dC9V5jqVi7kggv-37" value="&lt;font style=&quot;font-size: 22px;&quot;&gt;ThôngTinNhânViên&lt;/font&gt;" style="edgeLabel;html=1;align=center;verticalAlign=middle;resizable=0;points=[];" connectable="0" vertex="1" parent="FPxCk5dC9V5jqVi7kggv-32">
          <mxGeometry x="-0.1851" y="3" relative="1" as="geometry">
            <mxPoint x="-1" as="offset" />
          </mxGeometry>
        </mxCell>
        <mxCell id="FPxCk5dC9V5jqVi7kggv-33" value="" style="endArrow=classic;startArrow=classic;html=1;rounded=0;exitX=1;exitY=0.5;exitDx=0;exitDy=0;edgeStyle=orthogonalEdgeStyle;curved=1;" edge="1" parent="1" source="FPxCk5dC9V5jqVi7kggv-17">
          <mxGeometry width="50" height="50" relative="1" as="geometry">
            <mxPoint x="1840" y="650" as="sourcePoint" />
            <mxPoint x="3120" y="260" as="targetPoint" />
          </mxGeometry>
        </mxCell>
        <mxCell id="FPxCk5dC9V5jqVi7kggv-61" value="&lt;font style=&quot;font-size: 22px;&quot;&gt;ThôngTinNhânViên&lt;/font&gt;" style="edgeLabel;html=1;align=center;verticalAlign=middle;resizable=0;points=[];" connectable="0" vertex="1" parent="FPxCk5dC9V5jqVi7kggv-33">
          <mxGeometry x="-0.2221" y="-12" relative="1" as="geometry">
            <mxPoint x="-1" y="8" as="offset" />
          </mxGeometry>
        </mxCell>
        <mxCell id="FPxCk5dC9V5jqVi7kggv-34" value="" style="endArrow=classic;startArrow=classic;html=1;rounded=0;exitX=1;exitY=0.5;exitDx=0;exitDy=0;edgeStyle=orthogonalEdgeStyle;curved=1;" edge="1" parent="1" source="FPxCk5dC9V5jqVi7kggv-16">
          <mxGeometry width="50" height="50" relative="1" as="geometry">
            <mxPoint x="1840" y="650" as="sourcePoint" />
            <mxPoint x="3150" y="320" as="targetPoint" />
          </mxGeometry>
        </mxCell>
        <mxCell id="FPxCk5dC9V5jqVi7kggv-38" value="&lt;font style=&quot;font-size: 22px;&quot;&gt;ThôngTinNhânViên&lt;/font&gt;" style="edgeLabel;html=1;align=center;verticalAlign=middle;resizable=0;points=[];" connectable="0" vertex="1" parent="FPxCk5dC9V5jqVi7kggv-34">
          <mxGeometry x="-0.3549" y="39" relative="1" as="geometry">
            <mxPoint x="-1" as="offset" />
          </mxGeometry>
        </mxCell>
        <mxCell id="FPxCk5dC9V5jqVi7kggv-35" value="" style="endArrow=classic;startArrow=classic;html=1;rounded=0;exitX=1;exitY=0.5;exitDx=0;exitDy=0;edgeStyle=orthogonalEdgeStyle;curved=1;" edge="1" parent="1" source="FPxCk5dC9V5jqVi7kggv-14">
          <mxGeometry width="50" height="50" relative="1" as="geometry">
            <mxPoint x="1840" y="650" as="sourcePoint" />
            <mxPoint x="2900" y="1060" as="targetPoint" />
          </mxGeometry>
        </mxCell>
        <mxCell id="FPxCk5dC9V5jqVi7kggv-48" value="&lt;font style=&quot;font-size: 22px;&quot;&gt;ThôngTinĐơnHàng&lt;/font&gt;" style="edgeLabel;html=1;align=center;verticalAlign=middle;resizable=0;points=[];" connectable="0" vertex="1" parent="FPxCk5dC9V5jqVi7kggv-35">
          <mxGeometry x="-0.1763" y="-11" relative="1" as="geometry">
            <mxPoint x="-1" as="offset" />
          </mxGeometry>
        </mxCell>
        <mxCell id="FPxCk5dC9V5jqVi7kggv-51" value="" style="endArrow=classic;html=1;rounded=0;exitX=0.25;exitY=1;exitDx=0;exitDy=0;entryX=0;entryY=0.5;entryDx=0;entryDy=0;edgeStyle=orthogonalEdgeStyle;curved=1;" edge="1" parent="1" source="i1LWnFQTRq_zaYEJp6b2-10" target="FPxCk5dC9V5jqVi7kggv-18">
          <mxGeometry width="50" height="50" relative="1" as="geometry">
            <mxPoint x="2080" y="520" as="sourcePoint" />
            <mxPoint x="2130" y="470" as="targetPoint" />
            <Array as="points">
              <mxPoint x="1910" y="600" />
              <mxPoint x="1910" y="1140" />
            </Array>
          </mxGeometry>
        </mxCell>
        <mxCell id="FPxCk5dC9V5jqVi7kggv-54" value="&lt;font style=&quot;font-size: 22px;&quot;&gt;Y/cầu&lt;br style=&quot;border-color: var(--border-color);&quot;&gt;Xem&lt;br style=&quot;border-color: var(--border-color);&quot;&gt;Thông&lt;br style=&quot;border-color: var(--border-color);&quot;&gt;Tin&lt;br style=&quot;border-color: var(--border-color);&quot;&gt;Đơn&lt;br style=&quot;border-color: var(--border-color);&quot;&gt;Hàng&lt;/font&gt;" style="edgeLabel;html=1;align=center;verticalAlign=middle;resizable=0;points=[];" connectable="0" vertex="1" parent="FPxCk5dC9V5jqVi7kggv-51">
          <mxGeometry x="-0.1031" y="-7" relative="1" as="geometry">
            <mxPoint x="17" y="-1" as="offset" />
          </mxGeometry>
        </mxCell>
        <mxCell id="FPxCk5dC9V5jqVi7kggv-52" value="" style="endArrow=classic;html=1;rounded=0;exitX=0;exitY=0;exitDx=0;exitDy=0;entryX=0.313;entryY=1.025;entryDx=0;entryDy=0;entryPerimeter=0;edgeStyle=orthogonalEdgeStyle;elbow=vertical;curved=1;" edge="1" parent="1" source="FPxCk5dC9V5jqVi7kggv-18" target="i1LWnFQTRq_zaYEJp6b2-10">
          <mxGeometry width="50" height="50" relative="1" as="geometry">
            <mxPoint x="2080" y="520" as="sourcePoint" />
            <mxPoint x="2130" y="470" as="targetPoint" />
            <Array as="points">
              <mxPoint x="2020" y="1112" />
              <mxPoint x="2020" y="603" />
            </Array>
          </mxGeometry>
        </mxCell>
        <mxCell id="FPxCk5dC9V5jqVi7kggv-55" value="&lt;font style=&quot;font-size: 22px;&quot;&gt;Thông&lt;br style=&quot;border-color: var(--border-color);&quot;&gt;Tin&lt;br style=&quot;border-color: var(--border-color);&quot;&gt;Tình&lt;br style=&quot;border-color: var(--border-color);&quot;&gt;Trạng&lt;br style=&quot;border-color: var(--border-color);&quot;&gt;Đơn&lt;br style=&quot;border-color: var(--border-color);&quot;&gt;Hàng&lt;/font&gt;" style="edgeLabel;html=1;align=center;verticalAlign=middle;resizable=0;points=[];" connectable="0" vertex="1" parent="FPxCk5dC9V5jqVi7kggv-52">
          <mxGeometry x="-0.1439" y="-1" relative="1" as="geometry">
            <mxPoint y="71" as="offset" />
          </mxGeometry>
        </mxCell>
        <mxCell id="FPxCk5dC9V5jqVi7kggv-57" value="" style="endArrow=classic;html=1;rounded=0;exitX=0.063;exitY=0.763;exitDx=0;exitDy=0;exitPerimeter=0;entryX=0.75;entryY=0;entryDx=0;entryDy=0;edgeStyle=orthogonalEdgeStyle;curved=1;" edge="1" parent="1" source="FPxCk5dC9V5jqVi7kggv-19" target="i1LWnFQTRq_zaYEJp6b2-10">
          <mxGeometry width="50" height="50" relative="1" as="geometry">
            <mxPoint x="2420" y="530" as="sourcePoint" />
            <mxPoint x="2470" y="480" as="targetPoint" />
            <Array as="points">
              <mxPoint x="2220" y="31" />
              <mxPoint x="2220" y="220" />
              <mxPoint x="2060" y="220" />
            </Array>
          </mxGeometry>
        </mxCell>
        <mxCell id="FPxCk5dC9V5jqVi7kggv-60" value="&lt;font style=&quot;font-size: 22px;&quot;&gt;Thông&lt;br style=&quot;border-color: var(--border-color);&quot;&gt;Tin&lt;br style=&quot;border-color: var(--border-color);&quot;&gt;Danh&lt;br style=&quot;border-color: var(--border-color);&quot;&gt;Sách&lt;br style=&quot;border-color: var(--border-color);&quot;&gt;Nhân&lt;br style=&quot;border-color: var(--border-color);&quot;&gt;Viên&lt;/font&gt;" style="edgeLabel;html=1;align=center;verticalAlign=middle;resizable=0;points=[];" connectable="0" vertex="1" parent="FPxCk5dC9V5jqVi7kggv-57">
          <mxGeometry x="-0.5457" y="-7" relative="1" as="geometry">
            <mxPoint x="-33" y="-46" as="offset" />
          </mxGeometry>
        </mxCell>
        <mxCell id="FPxCk5dC9V5jqVi7kggv-58" value="" style="endArrow=classic;html=1;rounded=0;exitX=0.638;exitY=-0.017;exitDx=0;exitDy=0;exitPerimeter=0;entryX=0;entryY=0.5;entryDx=0;entryDy=0;edgeStyle=orthogonalEdgeStyle;curved=1;" edge="1" parent="1" source="i1LWnFQTRq_zaYEJp6b2-10" target="FPxCk5dC9V5jqVi7kggv-19">
          <mxGeometry width="50" height="50" relative="1" as="geometry">
            <mxPoint x="2420" y="530" as="sourcePoint" />
            <mxPoint x="2470" y="480" as="targetPoint" />
            <Array as="points">
              <mxPoint x="2030" y="478" />
              <mxPoint x="2030" y="10" />
            </Array>
          </mxGeometry>
        </mxCell>
        <mxCell id="FPxCk5dC9V5jqVi7kggv-59" value="&lt;font style=&quot;font-size: 22px;&quot;&gt;Y/Cầu&lt;br&gt;Xem&lt;br&gt;Thông&lt;br&gt;Tin&lt;br&gt;Danh&lt;br&gt;Sách&lt;br&gt;Nhân&lt;br&gt;Viên&lt;br&gt;&lt;/font&gt;" style="edgeLabel;html=1;align=center;verticalAlign=middle;resizable=0;points=[];" connectable="0" vertex="1" parent="FPxCk5dC9V5jqVi7kggv-58">
          <mxGeometry x="0.1098" y="-17" relative="1" as="geometry">
            <mxPoint x="-17" y="41" as="offset" />
          </mxGeometry>
        </mxCell>
        <mxCell id="FPxCk5dC9V5jqVi7kggv-64" value="" style="endArrow=classic;html=1;rounded=0;entryX=0.5;entryY=1;entryDx=0;entryDy=0;edgeStyle=orthogonalEdgeStyle;curved=1;" edge="1" parent="1" target="i1LWnFQTRq_zaYEJp6b2-16">
          <mxGeometry width="50" height="50" relative="1" as="geometry">
            <mxPoint x="1040" y="380" as="sourcePoint" />
            <mxPoint x="870" y="540" as="targetPoint" />
            <Array as="points">
              <mxPoint x="1040" y="1200" />
              <mxPoint x="360" y="1200" />
            </Array>
          </mxGeometry>
        </mxCell>
        <mxCell id="FPxCk5dC9V5jqVi7kggv-65" value="&lt;font style=&quot;font-size: 22px;&quot;&gt;ThôngTinSảnPhẩm&lt;/font&gt;" style="edgeLabel;html=1;align=center;verticalAlign=middle;resizable=0;points=[];" connectable="0" vertex="1" parent="FPxCk5dC9V5jqVi7kggv-64">
          <mxGeometry x="-0.4853" y="-42" relative="1" as="geometry">
            <mxPoint x="-88" y="315" as="offset" />
          </mxGeometry>
        </mxCell>
        <mxCell id="FPxCk5dC9V5jqVi7kggv-67" value="" style="endArrow=classic;html=1;rounded=0;entryX=1;entryY=0.5;entryDx=0;entryDy=0;edgeStyle=orthogonalEdgeStyle;curved=1;" edge="1" parent="1" target="FPxCk5dC9V5jqVi7kggv-19">
          <mxGeometry width="50" height="50" relative="1" as="geometry">
            <mxPoint x="3150" y="260" as="sourcePoint" />
            <mxPoint x="2500" y="540" as="targetPoint" />
            <Array as="points">
              <mxPoint x="3150" y="10" />
            </Array>
          </mxGeometry>
        </mxCell>
        <mxCell id="FPxCk5dC9V5jqVi7kggv-68" value="&lt;font style=&quot;font-size: 22px;&quot;&gt;ThôngTinNhânViên&lt;/font&gt;" style="edgeLabel;html=1;align=center;verticalAlign=middle;resizable=0;points=[];" connectable="0" vertex="1" parent="FPxCk5dC9V5jqVi7kggv-67">
          <mxGeometry x="0.1368" y="26" relative="1" as="geometry">
            <mxPoint as="offset" />
          </mxGeometry>
        </mxCell>
        <mxCell id="FPxCk5dC9V5jqVi7kggv-75" value="" style="endArrow=classic;html=1;rounded=0;exitX=0;exitY=0.25;exitDx=0;exitDy=0;entryX=0;entryY=1;entryDx=0;entryDy=0;edgeStyle=orthogonalEdgeStyle;curved=1;" edge="1" parent="1" source="dJgeBdtfag06815C9ANV-24" target="KI0g4pAGkvJERt58rDgv-35">
          <mxGeometry width="50" height="50" relative="1" as="geometry">
            <mxPoint x="170" y="350" as="sourcePoint" />
            <mxPoint x="220" y="300" as="targetPoint" />
          </mxGeometry>
        </mxCell>
        <mxCell id="FPxCk5dC9V5jqVi7kggv-77" value="&lt;font style=&quot;font-size: 22px;&quot;&gt;Tìm&lt;br&gt;Kiếm&lt;br&gt;Sản&lt;br&gt;Phẩm&lt;/font&gt;" style="edgeLabel;html=1;align=center;verticalAlign=middle;resizable=0;points=[];" connectable="0" vertex="1" parent="FPxCk5dC9V5jqVi7kggv-75">
          <mxGeometry x="0.2063" y="-21" relative="1" as="geometry">
            <mxPoint y="-1" as="offset" />
          </mxGeometry>
        </mxCell>
        <mxCell id="FPxCk5dC9V5jqVi7kggv-76" value="" style="endArrow=classic;html=1;rounded=0;exitX=0.242;exitY=0.942;exitDx=0;exitDy=0;exitPerimeter=0;entryX=0;entryY=0;entryDx=0;entryDy=0;edgeStyle=orthogonalEdgeStyle;curved=1;" edge="1" parent="1" source="KI0g4pAGkvJERt58rDgv-35" target="dJgeBdtfag06815C9ANV-24">
          <mxGeometry width="50" height="50" relative="1" as="geometry">
            <mxPoint x="170" y="350" as="sourcePoint" />
            <mxPoint x="220" y="300" as="targetPoint" />
          </mxGeometry>
        </mxCell>
        <mxCell id="FPxCk5dC9V5jqVi7kggv-78" value="&lt;font style=&quot;font-size: 22px;&quot;&gt;Thông&lt;br&gt;Tin&lt;br&gt;Sản&lt;br&gt;Phẩm &lt;br&gt;Tìm &lt;br&gt;Kiếm&lt;/font&gt;" style="edgeLabel;html=1;align=center;verticalAlign=middle;resizable=0;points=[];" connectable="0" vertex="1" parent="FPxCk5dC9V5jqVi7kggv-76">
          <mxGeometry x="0.1901" y="-20" relative="1" as="geometry">
            <mxPoint x="-10" y="-12" as="offset" />
          </mxGeometry>
        </mxCell>
        <mxCell id="FPxCk5dC9V5jqVi7kggv-79" value="" style="endArrow=classic;html=1;rounded=0;entryX=1;entryY=1;entryDx=0;entryDy=0;edgeStyle=orthogonalEdgeStyle;curved=1;" edge="1" parent="1" target="i1LWnFQTRq_zaYEJp6b2-17">
          <mxGeometry width="50" height="50" relative="1" as="geometry">
            <mxPoint x="1000" y="380" as="sourcePoint" />
            <mxPoint x="880" y="630" as="targetPoint" />
            <Array as="points">
              <mxPoint x="1000" y="560" />
              <mxPoint x="435" y="560" />
            </Array>
          </mxGeometry>
        </mxCell>
        <mxCell id="FPxCk5dC9V5jqVi7kggv-80" value="&lt;font style=&quot;font-size: 22px;&quot;&gt;ThôngTin&lt;br&gt;SảnPhẩm&lt;/font&gt;" style="edgeLabel;html=1;align=center;verticalAlign=middle;resizable=0;points=[];" connectable="0" vertex="1" parent="FPxCk5dC9V5jqVi7kggv-79">
          <mxGeometry x="-0.2189" y="-26" relative="1" as="geometry">
            <mxPoint x="107" y="-94" as="offset" />
          </mxGeometry>
        </mxCell>
        <mxCell id="FPxCk5dC9V5jqVi7kggv-82" value="" style="endArrow=classic;html=1;rounded=0;entryX=1;entryY=1;entryDx=0;entryDy=0;edgeStyle=orthogonalEdgeStyle;curved=1;" edge="1" parent="1" target="FPxCk5dC9V5jqVi7kggv-18">
          <mxGeometry width="50" height="50" relative="1" as="geometry">
            <mxPoint x="2900" y="1120" as="sourcePoint" />
            <mxPoint x="2530" y="1290" as="targetPoint" />
            <Array as="points">
              <mxPoint x="2900" y="1230" />
              <mxPoint x="2185" y="1230" />
            </Array>
          </mxGeometry>
        </mxCell>
        <mxCell id="FPxCk5dC9V5jqVi7kggv-84" value="&lt;font style=&quot;font-size: 22px;&quot;&gt;ThôngTinĐơnHàng&lt;/font&gt;" style="edgeLabel;html=1;align=center;verticalAlign=middle;resizable=0;points=[];" connectable="0" vertex="1" parent="FPxCk5dC9V5jqVi7kggv-82">
          <mxGeometry x="0.052" y="-2" relative="1" as="geometry">
            <mxPoint as="offset" />
          </mxGeometry>
        </mxCell>
      </root>
    </mxGraphModel>
  </diagram>
</mxfile>
